<svg width="236" height="281" viewBox="0 0 236 281" fill="none" xmlns="http://www.w3.org/2000/svg">
<rect x="0.5" y="0.5" width="235" height="280" fill="#FFF2C3" stroke="black"/>
<path d="M95.061 259.2C93.8777 259.2 92.836 258.958 91.936 258.475C91.036 257.992 90.336 257.317 89.836 256.45C89.3527 255.567 89.111 254.55 89.111 253.4V247.1C89.111 245.95 89.3527 244.942 89.836 244.075C90.336 243.192 91.036 242.508 91.936 242.025C92.836 241.542 93.8777 241.3 95.061 241.3C96.2444 241.3 97.286 241.542 98.186 242.025C99.1027 242.508 99.8027 243.192 100.286 244.075C100.786 244.942 101.036 245.95 101.036 247.1V253.4C101.036 254.55 100.786 255.567 100.286 256.45C99.8027 257.317 99.1027 257.992 98.186 258.475C97.286 258.958 96.2444 259.2 95.061 259.2ZM95.061 257.675C96.3277 257.675 97.3444 257.292 98.111 256.525C98.8777 255.758 99.261 254.742 99.261 253.475V247.075C99.261 245.808 98.8777 244.792 98.111 244.025C97.3444 243.242 96.3277 242.85 95.061 242.85C93.811 242.85 92.8027 243.242 92.036 244.025C91.2694 244.792 90.886 245.808 90.886 247.075V253.475C90.886 254.742 91.2694 255.758 92.036 256.525C92.8027 257.292 93.811 257.675 95.061 257.675ZM111.863 241.475C113.329 241.475 114.504 241.925 115.388 242.825C116.288 243.725 116.738 244.908 116.738 246.375C116.738 247.825 116.279 248.992 115.363 249.875C114.463 250.758 113.271 251.2 111.788 251.2H106.913C106.846 251.2 106.813 251.233 106.813 251.3V258.75C106.813 258.917 106.729 259 106.563 259H105.288C105.121 259 105.038 258.917 105.038 258.75V241.725C105.038 241.558 105.121 241.475 105.288 241.475H111.863ZM111.663 249.725C112.646 249.725 113.446 249.425 114.063 248.825C114.679 248.208 114.988 247.4 114.988 246.4C114.988 245.383 114.679 244.567 114.063 243.95C113.446 243.333 112.646 243.025 111.663 243.025H106.913C106.846 243.025 106.813 243.058 106.813 243.125V249.625C106.813 249.692 106.846 249.725 106.913 249.725H111.663ZM131.333 242.8C131.333 242.967 131.249 243.05 131.083 243.05H121.883C121.816 243.05 121.783 243.083 121.783 243.15V249.325C121.783 249.392 121.816 249.425 121.883 249.425H128.333C128.499 249.425 128.583 249.508 128.583 249.675V250.725C128.583 250.892 128.499 250.975 128.333 250.975H121.883C121.816 250.975 121.783 251.008 121.783 251.075V257.35C121.783 257.417 121.816 257.45 121.883 257.45H131.083C131.249 257.45 131.333 257.533 131.333 257.7V258.75C131.333 258.917 131.249 259 131.083 259H120.258C120.091 259 120.008 258.917 120.008 258.75V241.75C120.008 241.583 120.091 241.5 120.258 241.5H131.083C131.249 241.5 131.333 241.583 131.333 241.75V242.8ZM145.569 241.75C145.569 241.583 145.653 241.5 145.819 241.5H147.094C147.261 241.5 147.344 241.583 147.344 241.75V258.75C147.344 258.917 147.261 259 147.094 259H145.844C145.728 259 145.628 258.942 145.544 258.825L137.019 244.95C137.003 244.9 136.978 244.883 136.944 244.9C136.911 244.9 136.894 244.925 136.894 244.975L136.919 258.75C136.919 258.917 136.836 259 136.669 259H135.394C135.228 259 135.144 258.917 135.144 258.75V241.75C135.144 241.583 135.228 241.5 135.394 241.5H136.644C136.761 241.5 136.861 241.558 136.944 241.675L145.469 255.55C145.486 255.6 145.511 255.625 145.544 255.625C145.578 255.608 145.594 255.575 145.594 255.525L145.569 241.75Z" fill="black"/>
<rect x="35.5" y="39.5" width="165" height="172" fill="#FFF2C3" stroke="black"/>
</svg>
